<?xml version="1.0" encoding="UTF-8"?>
<!DOCTYPE svg PUBLIC "-//W3C//DTD SVG 1.1//EN" "http://www.w3.org/Graphics/SVG/1.1/DTD/svg11.dtd">
<svg xmlns="http://www.w3.org/2000/svg" version="1.1" width="1080px" height="1080px" style="shape-rendering:geometricPrecision; text-rendering:geometricPrecision; image-rendering:optimizeQuality; fill-rule:evenodd; clip-rule:evenodd" xmlns:xlink="http://www.w3.org/1999/xlink">
<g><path style="opacity:1" fill="#06bbda" d="M 386.5,34.5 C 491.851,34.0241 597.184,34.5241 702.5,36C 813.698,51.4971 903.198,103.664 971,192.5C 1011.07,247.344 1035.07,308.677 1043,376.5C 1044.6,423.815 1044.94,471.148 1044,518.5C 1030.1,640.947 971.937,735.78 869.5,803C 818.993,834.056 763.993,851.722 704.5,856C 646.833,856.333 589.167,856.667 531.5,857C 482.631,914.536 427.965,965.87 367.5,1011C 360.004,1016.25 352.337,1021.25 344.5,1026C 333.853,1031.97 323.187,1037.97 312.5,1044C 296.651,1046.76 287.651,1040.26 285.5,1024.5C 288.037,1011.02 291.204,997.684 295,984.5C 302.215,946.74 300.549,909.407 290,872.5C 285.832,860.494 281.666,848.494 277.5,836.5C 171.341,798.175 97.5074,726.508 56,621.5C 44.6696,590.854 37.6696,559.188 35,526.5C 34.3333,473.833 34.3333,421.167 35,368.5C 46.8418,264.375 94.0085,180.208 176.5,116C 238.88,69.6602 308.88,42.4935 386.5,34.5 Z M 633.5,262.5 C 651.332,263.167 661.332,272.334 663.5,290C 663.112,295.501 661.612,300.667 659,305.5C 563.167,402 467,498.167 370.5,594C 359.11,600.468 348.11,599.802 337.5,592C 298.667,553.167 259.833,514.333 221,475.5C 211.346,457.245 215.513,443.078 233.5,433C 242.85,430.448 251.517,431.782 259.5,437C 291.167,468.667 322.833,500.333 354.5,532C 355.167,532.667 355.833,532.667 356.5,532C 443.192,444.872 529.859,357.872 616.5,271C 621.444,266.528 627.111,263.695 633.5,262.5 Z M 802.5,262.5 C 820.325,263.159 830.325,272.326 832.5,290C 831.867,295.898 830.034,301.398 827,306.5C 732.401,401.599 637.568,496.599 542.5,591.5C 531.716,599.768 520.382,600.602 508.5,594C 492,577.5 475.5,561 459,544.5C 451.298,530.251 453.465,517.751 465.5,507C 475.678,500.485 486.012,500.151 496.5,506C 505.997,514.497 515.164,523.33 524,532.5C 612.861,443.306 702.027,354.473 791.5,266C 795.254,264.691 798.921,263.525 802.5,262.5 Z"/></g>
</svg>
